grf
version=1
nRows=12
nColumns=37
inDegrees=no
endheader
time	ground_force_1_vx	ground_force_1_vy	ground_force_1_vz	ground_force_1_px	ground_force_1_py	ground_force_1_pz	ground_moment_1_mx	ground_moment_1_my	ground_moment_1_mz	ground_force_2_vx	ground_force_2_vy	ground_force_2_vz	ground_force_2_px	ground_force_2_py	ground_force_2_pz	ground_moment_2_mx	ground_moment_2_my	ground_moment_2_mz	ground_force_3_vx	ground_force_3_vy	ground_force_3_vz	ground_force_3_px	ground_force_3_py	ground_force_3_pz	ground_moment_3_mx	ground_moment_3_my	ground_moment_3_mz	ground_force_4_vx	ground_force_4_vy	ground_force_4_vz	ground_force_4_px	ground_force_4_py	ground_force_4_pz	ground_moment_4_mx	ground_moment_4_my	ground_moment_4_mz
      2.10000000	      0.00000000	     -0.00000000	      0.00000000	      0.00000000	      0.00000000	      0.00000000	      0.00000000	      0.00000000	      0.00000000	     -0.20972729	     56.88753891	   -368.01348877	   -358.29298156	  -1132.15015408	      0.00000000	      0.00000000	      0.00000000	   6797.74864614	      7.91715732	    -58.31412194	   -392.09729004	   -381.43000001	   -732.30855427	      0.00000000	      0.00000000	     -0.00000000	  -6610.07839774	      0.00000000	     -0.00000000	      0.00000000	      0.00000000	      0.00000000	      0.00000000	      0.00000000	      0.00000000	      0.00000000
      2.11000000	      0.00000000	     -0.00000000	      0.00000000	      0.00000000	      0.00000000	      0.00000000	      0.00000000	      0.00000000	      0.00000000	      1.56034613	     55.54640579	   -364.55364990	   -358.57044723	  -1134.20132024	      0.00000000	      0.00000000	      0.00000000	   6762.27843814	      8.59603655	    -58.70289687	   -391.08483887	   -382.24463246	   -733.45459360	      0.00000000	     -0.00000000	     -0.00000000	  -7093.90827416	      0.00000000	     -0.00000000	      0.00000000	      0.00000000	      0.00000000	      0.00000000	      0.00000000	      0.00000000	      0.00000000
      2.12000000	      0.00000000	     -0.00000000	      0.00000000	      0.00000000	      0.00000000	      0.00000000	      0.00000000	      0.00000000	      0.00000000	      3.12236786	     54.62771606	   -362.10083008	   -359.46646799	  -1133.76147563	      0.00000000	      0.00000000	      0.00000000	   6777.61425490	      9.22591658	    -57.75787816	   -388.99050903	   -381.47868063	   -733.00113367	      0.00000000	      0.00000000	     -0.00000000	  -7112.90325859	      0.00000000	     -0.00000000	      0.00000000	      0.00000000	      0.00000000	      0.00000000	      0.00000000	      0.00000000	      0.00000000
      2.13000000	      0.00000000	     -0.00000000	      0.00000000	      0.00000000	      0.00000000	      0.00000000	      0.00000000	      0.00000000	      0.00000000	      3.47920990	     54.01770782	   -361.22885132	   -360.23142406	  -1134.37888408	      0.00000000	      0.00000000	      0.00000000	   6969.80093623	      9.86068034	    -57.32993021	   -386.52896118	   -382.00503274	   -733.18262610	      0.00000000	     -0.00000000	     -0.00000000	  -7259.34198090	      0.00000000	     -0.00000000	      0.00000000	      0.00000000	      0.00000000	      0.00000000	      0.00000000	      0.00000000	      0.00000000
      2.14000000	      0.00000000	     -0.00000000	      0.00000000	      0.00000000	      0.00000000	      0.00000000	      0.00000000	      0.00000000	      0.00000000	      3.23538303	     53.38911438	   -357.80899048	   -359.88534720	  -1134.29789636	      0.00000000	      0.00000000	      0.00000000	   6898.99230442	      9.74884574	    -58.08314218	   -387.31939697	   -381.39453301	   -732.56077939	      0.00000000	      0.00000000	     -0.00000000	  -7455.76503386	      0.00000000	     -0.00000000	      0.00000000	      0.00000000	      0.00000000	      0.00000000	      0.00000000	      0.00000000	      0.00000000
      2.15000000	      0.00000000	     -0.00000000	      0.00000000	      0.00000000	      0.00000000	      0.00000000	      0.00000000	      0.00000000	      0.00000000	      3.03315735	     52.95311737	   -359.32672119	   -359.48961690	  -1134.93790878	      0.00000000	      0.00000000	      0.00000000	   6913.39257740	      8.59072362	    -58.73864440	   -391.61755371	   -381.67768680	   -731.76027759	      0.00000000	      0.00000000	     -0.00000000	  -7551.69090571	      0.00000000	     -0.00000000	      0.00000000	      0.00000000	      0.00000000	      0.00000000	      0.00000000	      0.00000000	      0.00000000
      2.16000000	      0.00000000	     -0.00000000	      0.00000000	      0.00000000	      0.00000000	      0.00000000	      0.00000000	      0.00000000	      0.00000000	      2.49298859	     53.72113037	   -360.48022461	   -361.27241561	  -1134.20456043	      0.00000000	      0.00000000	      0.00000000	   7434.55389751	      7.89044292	    -59.18990013	   -394.24902344	   -381.41600797	   -733.12014566	      0.00000000	      0.00000000	     -0.00000000	  -7772.69927877	      0.00000000	     -0.00000000	      0.00000000	      0.00000000	      0.00000000	      0.00000000	      0.00000000	      0.00000000	      0.00000000
      2.17000000	      0.00000000	     -0.00000000	      0.00000000	      0.00000000	      0.00000000	      0.00000000	      0.00000000	      0.00000000	      0.00000000	      0.38173103	     53.57732010	   -362.02917480	   -361.23925370	  -1132.76424323	      0.00000000	      0.00000000	      0.00000000	   7477.13738117	      7.15626909	    -59.80350938	   -400.08929443	   -380.89889386	   -732.53840453	      0.00000000	      0.00000000	     -0.00000000	  -8056.62084109	      0.00000000	     -0.00000000	      0.00000000	      0.00000000	      0.00000000	      0.00000000	      0.00000000	      0.00000000	      0.00000000
      2.18000000	      0.00000000	     -0.00000000	      0.00000000	      0.00000000	      0.00000000	      0.00000000	      0.00000000	      0.00000000	      0.00000000	     -0.24742883	     53.82466888	   -363.89529419	   -361.15656424	  -1133.19251952	      0.00000000	      0.00000000	      0.00000000	   7356.16125861	      6.39212713	    -58.92043742	   -402.92095947	   -380.97856987	   -732.25696498	      0.00000000	     -0.00000000	     -0.00000000	  -8034.50148998	      0.00000000	     -0.00000000	      0.00000000	      0.00000000	      0.00000000	      0.00000000	      0.00000000	      0.00000000	      0.00000000
      2.19000000	      0.00000000	     -0.00000000	      0.00000000	      0.00000000	      0.00000000	      0.00000000	      0.00000000	      0.00000000	      0.00000000	      0.59373730	     52.78567123	   -364.38027954	   -360.96637114	  -1134.19284979	      0.00000000	      0.00000000	      0.00000000	   7536.89489447	      6.13109357	    -59.17553002	   -401.89331055	   -380.53889016	   -733.00263123	      0.00000000	      0.00000000	     -0.00000000	  -8227.18836106	      0.00000000	     -0.00000000	      0.00000000	      0.00000000	      0.00000000	      0.00000000	      0.00000000	      0.00000000	      0.00000000
      2.20000000	      0.00000000	     -0.00000000	      0.00000000	      0.00000000	      0.00000000	      0.00000000	      0.00000000	      0.00000000	      0.00000000	      1.40139449	     52.40867615	   -363.06896973	   -360.86879396	  -1133.31733664	      0.00000000	      0.00000000	      0.00000000	   7768.86658902	      6.89394158	    -58.01719726	   -399.42944336	   -380.61527243	   -732.83189857	      0.00000000	      0.00000000	     -0.00000000	  -8505.56659356	      0.00000000	     -0.00000000	      0.00000000	      0.00000000	      0.00000000	      0.00000000	      0.00000000	      0.00000000	      0.00000000
      2.21000000	      0.00000000	     -0.00000000	      0.00000000	      0.00000000	      0.00000000	      0.00000000	      0.00000000	      0.00000000	      0.00000000	      2.04130650	     50.90398788	   -358.89337158	   -361.63598396	  -1131.50825384	      0.00000000	      0.00000000	      0.00000000	   7599.82292310	      7.01331831	    -57.15958084	   -395.99899292	   -379.75994876	   -732.31313207	      0.00000000	      0.00000000	     -0.00000000	  -8420.82070575	      0.00000000	     -0.00000000	      0.00000000	      0.00000000	      0.00000000	      0.00000000	      0.00000000	      0.00000000	      0.00000000
